# xmcd
#
# Track frame offsets:
#	150
#	17687
#	26769
#	48580
#	60025
#	86895
#	101307
#	117265
#	133905
#	144905
#	164412
#	186402
#	199984
#	219435
#
# Disc length: 3164 seconds
#
# Revision: 1
# Processed by: cddbd v1.5.2PL0 Copyright (c) Steve Scherf et al.
# Submitted via: audiograbber 1.83.01
#
DISCID=c50c5a0e
DTITLE=Scona Brae - Beyond the Well
DYEAR=2000
DGENRE=Celtic
TTITLE0=Devlin's/Langstrom's Pony/Athol Highlanders
TTITLE1=Caite ghaoil an robh thu an raoir/Am faca sibh Mairi nighean Alasdair
TTITLE2=Thomas' Journey/St. Mary's River Crossing
TTITLE3=O'Carolan's Welcome
TTITLE4=Gloomy Winter's Noo Awa/Dunmore Lasses
TTITLE5=Off to California/Glenbeigh Hornpipe
TTITLE6=The Echo Mocks the Corncrake/Calliope House
TTITLE7=Yon Rosie Briar
TTITLE8=Tom Briggs
TTITLE9=Land of My Love
TTITLE10=Jizaiqoe/Bus Stop/Jordan's Hiding
TTITLE11=Paddy goes to Istanbul
TTITLE12=Oru Mhaire Bhruinneal/Julia Delaney/Return to Cheronbyl
TTITLE13=Da Slockit Light
EXTD=Edmonton, Alberta, Canada
EXTT0=
EXTT1=
EXTT2=
EXTT3=
EXTT4=
EXTT5=
EXTT6=
EXTT7=
EXTT8=
EXTT9=
EXTT10=
EXTT11=
EXTT12=
EXTT13=
PLAYORDER=
